<svg width="29" height="20" viewBox="0 0 29 20" fill="none" xmlns="http://www.w3.org/2000/svg">
<path d="M28.5586 8.85831L28.5572 8.85677L20.6936 0.469672C20.1045 -0.158634 19.1516 -0.156296 18.5652 0.475156C17.9789 1.10653 17.9812 2.12774 18.5703 2.75612L23.8499 8.3871H1.50494C0.673763 8.3871 0 9.10919 0 10C0 10.8908 0.673763 11.6129 1.50494 11.6129H23.8498L18.5703 17.2439C17.9812 17.8723 17.979 18.8935 18.5653 19.5248C19.1517 20.1564 20.1046 20.1586 20.6937 19.5303L28.5573 11.1432L28.5587 11.1417C29.1481 10.5112 29.1462 9.48669 28.5586 8.85831Z" fill="#162A41"/>
</svg>
