<svg width="60" height="60" viewBox="0 0 60 60" fill="none" xmlns="http://www.w3.org/2000/svg">
<circle cx="30" cy="30" r="30" fill="#162A41"/>
<g clip-path="url(#clip0_84_23)">
<path d="M26.75 35.6121V40.2501C26.75 40.5741 26.958 40.8611 27.266 40.9631C27.343 40.9881 27.422 41.0001 27.5 41.0001C27.734 41.0001 27.96 40.8901 28.104 40.6941L30.817 37.0021L26.75 35.6121Z" fill="white"/>
<path d="M41.6851 18.139C41.4551 17.976 41.1531 17.954 40.9031 18.085L18.403 29.835C18.137 29.974 17.98 30.258 18.002 30.557C18.025 30.857 18.224 31.113 18.507 31.21L24.762 33.348L38.0831 21.958L27.775 34.377L38.2581 37.96C38.3361 37.986 38.4181 38 38.5001 38C38.6361 38 38.7711 37.963 38.8901 37.891C39.0801 37.775 39.2091 37.58 39.2421 37.361L41.9921 18.861C42.0331 18.581 41.9151 18.303 41.6851 18.139Z" fill="white"/>
</g>
<defs>
<clipPath id="clip0_84_23">
<rect width="24" height="24" fill="white" transform="translate(18 18)"/>
</clipPath>
</defs>
</svg>
