<svg width="22" height="24" viewBox="0 0 22 24" fill="none" xmlns="http://www.w3.org/2000/svg">
<path d="M20.4939 10.2891L2.94697 0.258971C2.64446 0.0861714 2.30766 0 1.97086 0C1.964 0 1.95726 0.000914286 1.95051 0.000914286C1.90526 0.00137143 1.86011 0.00365714 1.81509 0.0072C1.79474 0.0088 1.77451 0.0109714 1.75417 0.0132571C1.71897 0.0171429 1.68389 0.0220571 1.64891 0.0278857C1.63623 0.0300571 1.62343 0.0307429 1.61074 0.0331429L1.61143 0.0340571C1.3928 0.0744 1.17943 0.151429 0.981143 0.266514C0.373829 0.618857 0 1.26789 0 1.96994V22.0302C0 22.7322 0.373829 23.3813 0.981143 23.7336C1.17931 23.8487 1.39269 23.9258 1.61131 23.9662L1.61074 23.967C1.62217 23.9691 1.63371 23.9698 1.64503 23.9717C1.68263 23.9781 1.72034 23.9833 1.75817 23.9873C1.77714 23.9894 1.796 23.9914 1.81497 23.9929C1.85943 23.9965 1.90377 23.9985 1.94834 23.9991C1.95589 23.9992 1.96331 24.0001 1.97086 24.0001C2.30766 24.0001 2.64446 23.9139 2.94697 23.7411L20.4939 13.7109C21.1074 13.3601 21.4861 12.7078 21.4861 12.0009C21.4861 12.0009 21.4861 12.0006 21.4861 12.0005C21.4861 12.0005 21.4861 12.0001 21.4861 12C21.4861 12 21.4861 11.9997 21.4861 11.9995C21.4861 11.9995 21.4861 11.9992 21.4861 11.9991C21.4861 11.2923 21.1074 10.64 20.4939 10.2891ZM13.5547 8.29726L11.8101 10.5861L7.3712 4.76251L13.5547 8.29726ZM19.6432 12.2225L7.3712 19.2375L15.0551 9.1568L19.6431 11.7793C19.7225 11.8247 19.7719 11.9097 19.7719 12.0008C19.7718 12.0922 19.7224 12.1773 19.6432 12.2225Z" fill="#162A41"/>
</svg>
